#!OML:ASF F:\VICON\USERDATA\INSTALL\rory3\rory3.ASF
:FULLY-SPECIFIED
:DEGREES
3487
root 14.6901 17.9382 -7.63659 539.776 -6.94944 179.041
lowerback 12.5846 1.33053 0.560504
upperback 2.56766 1.60967 0.495532
thorax -4.35485 0.682036 -0.0489481
lowerneck -11.523 2.41756 -13.4942
upperneck 43.3157 -0.495542 3.96185
head 18.1146 -3.85255 3.58917
rclavicle 2.33075e-014 1.98785e-015
rhumerus -31.5461 -9.62897 -81.7764
rradius 35.9409
rwrist 5.51714
rhand -16.8415 6.56113
rfingers 7.12502
rthumb 9.38832 -23.2098
lclavicle 2.33075e-014 1.98785e-015
lhumerus -32.5496 6.48355 84.6137
lradius 37.6885
lwrist -4.31689
lhand -19.2456 28.2762
lfingers 7.12502
lthumb 7.06807 58.1382
rfemur -14.6237 -1.53329 22.9782
rtibia 33.2714
rfoot -13.7883 -8.73751
rtoes 6.58069
lfemur -16.3257 -6.35742 -20.1626
ltibia 34.0066
lfoot -15.5081 -6.57851
ltoes -16.4007
3488
root 14.6911 17.944 -7.5922 539.754 -6.98701 178.95
lowerback 12.6344 1.30187 0.478476
upperback 2.60676 1.55674 0.504494
thorax -4.34402 0.654987 0.0146943
lowerneck -11.6831 2.45274 -13.3715
upperneck 43.3675 -0.385866 3.84294
head 18.1753 -3.80415 3.5315
rclavicle -3.11098e-014 -5.96354e-015
rhumerus -31.7698 -10.0075 -81.7074
rradius 36.4171
rwrist 5.0732
rhand -16.9811 6.33688
rfingers 7.12502
rthumb 9.25358 -23.4401
lclavicle -3.11098e-014 -5.96354e-015
lhumerus -32.3436 6.46687 84.6956
lradius 37.6498
lwrist -4.35363
lhand -19.2766 28.0848
lfingers 7.12502
lthumb 7.03816 57.9478
rfemur -14.7185 -1.40352 22.8706
rtibia 33.1759
rfoot -13.3996 -8.85346
rtoes 6.25872
lfemur -16.3181 -5.85756 -20.3086
ltibia 35.1006
lfoot -15.8851 -5.68167
ltoes -18.4954
3489
root 14.6907 17.9503 -7.54541 539.601 -7.02408 179.068
lowerback 12.7947 1.27654 0.650396
upperback 2.66115 1.5405 0.573272
thorax -4.37205 0.640939 -0.00995925
lowerneck -11.876 2.4532 -13.4929
upperneck 43.5055 -0.398663 3.99517
head 18.3131 -3.82287 3.62717
rclavicle -1.07344e-014 -2.78299e-015
rhumerus -31.8734 -10.1706 -81.608
rradius 36.765
rwrist 4.30497
rhand -16.9839 5.69169
rfingers 7.12502
rthumb 9.25088 -24.0854
lclavicle -1.07344e-014 -2.78299e-015
lhumerus -32.0764 6.45006 84.8102
lradius 37.4382
lwrist -4.33761
lhand -19.7426 27.5353
lfingers 7.12502
lthumb 6.58834 57.4128
rfemur -14.6847 -1.34358 23.0009
rtibia 33.0415
rfoot -13.0544 -8.99324
rtoes 5.83477
lfemur -16.1747 -5.41283 -20.2324
ltibia 36.2732
lfoot -16.0179 -4.90038
ltoes -18.6902
3490
root 14.6892 17.9617 -7.50446 539.365 -7.14551 179.093
lowerback 13.0185 1.21714 0.732224
upperback 2.70604 1.46691 0.615944
thorax -4.44687 0.599251 -0.00282883
lowerneck -11.9058 2.47157 -13.5152
upperneck 43.4715 -0.310298 3.93692
head 18.2896 -3.79279 3.61868
rclavicle -2.17669e-014 -7.55382e-015
rhumerus -31.9906 -10.3448 -81.4775
rradius 36.9019
rwrist 3.30436
rhand -16.5066 4.93961
rfingers 7.12502
rthumb 9.71141 -24.8165
lclavicle -2.17669e-014 -7.55382e-015
lhumerus -31.9045 6.47406 84.8838
lradius 37.2347
lwrist -4.27339
lhand -20.1327 27.1226
lfingers 7.12502
lthumb 6.21172 57.0115
rfemur -14.4621 -1.46029 23.0046
rtibia 32.8505
rfoot -12.7599 -8.98079
rtoes 6.20013
lfemur -15.9122 -5.05973 -20.263
ltibia 37.5117
lfoot -16.0466 -4.24035
ltoes -18.9117
3491
root 14.6879 17.9744 -7.46578 539.304 -7.25582 178.983
lowerback 13.0677 1.14117 0.625496
upperback 2.66678 1.35603 0.622996
thorax -4.51841 0.546808 0.0818352
lowerneck -11.7527 2.5477 -13.5103
upperneck 43.392 -0.194266 3.88621
head 18.1823 -3.7495 3.60954
rclavicle 9.93923e-017 -1.31198e-014
rhumerus -32.3273 -10.6847 -81.3141
rradius 37.2087
rwrist 2.98642
rhand -16.5394 4.66917
rfingers 7.12502
rthumb 9.6798 -25.0884
lclavicle 9.93923e-017 -1.31198e-014
lhumerus -31.9014 6.54698 84.9227
lradius 37.2864
lwrist -4.37057
lhand -19.6833 27.6856
lfingers 7.12502
lthumb 6.64552 57.5613
rfemur -14.3785 -1.44913 22.8591
rtibia 32.5772
rfoot -12.3853 -9.05565
rtoes 6.46109
lfemur -15.7958 -4.71811 -20.4187
ltibia 38.8088
lfoot -16.0808 -3.63426
ltoes -19.2918
3492
root 14.6829 17.9868 -7.42553 539.32 -7.34098 178.868
lowerback 12.997 1.06086 0.521904
upperback 2.63073 1.2411 0.638713
thorax -4.52046 0.493665 0.176461
lowerneck -11.7005 2.60023 -13.5612
upperneck 43.4335 -0.151296 3.9077
head 18.1863 -3.75199 3.63313
rclavicle -6.95746e-016 -5.96354e-015
rhumerus -32.7105 -10.8687 -81.1458
rradius 37.6355
rwrist 2.77016
rhand -17.9589 5.4735
rfingers 7.12502
rthumb 8.31004 -24.3431
lclavicle -6.95746e-016 -5.96354e-015
lhumerus -31.857 6.62491 85.0031
lradius 37.2847
lwrist -4.42856
lhand -19.6449 28.1209
lfingers 7.12502
lthumb 6.68263 57.9955
rfemur -14.348 -1.40756 22.6907
rtibia 32.2506
rfoot -12.1398 -9.08578
rtoes 6.57184
lfemur -15.7259 -4.38474 -20.5742
ltibia 40.1359
lfoot -16.0358 -3.23782
ltoes -17.9573
3493
root 14.6741 18.0041 -7.38372 539.253 -7.44025 178.864
lowerback 12.9994 0.945009 0.559779
upperback 2.62979 1.09433 0.686588
thorax -4.52286 0.420672 0.229546
lowerneck -11.7508 2.65371 -13.6255
upperneck 43.4821 -0.0517264 3.8876
head 18.2163 -3.73659 3.65049
rclavicle 5.17834e-014 2.78299e-015
rhumerus -32.9775 -11.0232 -80.9896
rradius 37.8544
rwrist 2.40853
rhand -19.1291 6.14828
rfingers 7.12502
rthumb 7.18054 -23.7099
lclavicle 5.17834e-014 2.78299e-015
lhumerus -31.7822 6.63236 85.106
lradius 37.2264
lwrist -4.286
lhand -20.0141 28.1776
lfingers 7.12502
lthumb 6.32617 58.0632
rfemur -14.2102 -1.45508 22.627
rtibia 31.9159
rfoot -11.9238 -9.05076
rtoes 6.79555
lfemur -15.5901 -4.02681 -20.6004
ltibia 41.4896
lfoot -15.7171 -3.08671
ltoes -16.1941
3494
root 14.6638 18.0198 -7.34331 539.168 -7.51967 178.811
lowerback 12.9533 0.838329 0.569912
upperback 2.6805 0.949503 0.697474
thorax -4.44422 0.347584 0.260104
lowerneck -11.9231 2.72367 -13.6728
upperneck 43.6283 0.0436565 3.94743
head 18.3379 -3.71903 3.7053
rclavicle -5.54609e-014 -1.59028e-014
rhumerus -32.9991 -11.3186 -80.8586
rradius 37.7144
rwrist 2.16234
rhand -19.3583 5.99986
rfingers 7.12502
rthumb 6.95925 -23.8657
lclavicle -5.54609e-014 -1.59028e-014
lhumerus -31.651 6.634 85.1677
lradius 37.2992
lwrist -4.35934
lhand -19.4024 28.7541
lfingers 7.12502
lthumb 6.91676 58.6211
rfemur -14.0704 -1.50224 22.4986
rtibia 31.5723
rfoot -11.5765 -9.02369
rtoes 6.74836
lfemur -15.3672 -3.54147 -20.6934
ltibia 42.8422
lfoot -15.4874 -2.87465
ltoes -17.0676
3495
root 14.6577 18.0298 -7.29925 539.094 -7.55133 178.765
lowerback 12.883 0.74952 0.527811
upperback 2.72396 0.822332 0.705582
thorax -4.3607 0.284304 0.314139
lowerneck -12.0527 2.79097 -13.616
upperneck 43.7255 0.127665 3.95868
head 18.4198 -3.689 3.71586
rclavicle -1.09332e-014 7.95139e-015
rhumerus -33.0156 -11.6736 -80.7251
rradius 37.45
rwrist 2.05606
rhand -18.8992 5.41164
rfingers 7.12502
rthumb 7.40242 -24.4389
lclavicle -1.09332e-014 7.95139e-015
lhumerus -31.4658 6.62048 85.2078
lradius 37.2294
lwrist -4.42687
lhand -18.9332 29.1554
lfingers 7.12502
lthumb 7.3696 59.007
rfemur -13.981 -1.50179 22.4064
rtibia 31.225
rfoot -11.1864 -9.04667
rtoes 6.74796
lfemur -15.1037 -2.96141 -20.745
ltibia 44.1551
lfoot -15.0662 -2.65541
ltoes -19.44
3496
root 14.6517 18.0411 -7.25601 539.022 -7.52195 178.726
lowerback 12.8108 0.6894 0.45635
upperback 2.72692 0.734115 0.722639
thorax -4.31906 0.242097 0.387213
lowerneck -12.0226 2.83686 -13.3715
upperneck 43.626 0.263819 3.6859
head 18.3357 -3.61897 3.56188
rclavicle 5.03919e-014 2.3059e-014
rhumerus -33.2537 -11.8856 -80.6016
rradius 37.324
rwrist 1.40966
rhand -18.7903 5.33341
rfingers 7.12502
rthumb 7.50756 -24.5134
lclavicle 5.03919e-014 2.3059e-014
lhumerus -31.2862 6.52315 85.2794
lradius 36.9888
lwrist -4.31714
lhand -19.2115 29.1514
lfingers 7.12502
lthumb 7.101 59.0122
rfemur -13.8707 -1.41686 22.3259
rtibia 30.8843
rfoot -10.8703 -9.06142
rtoes 6.49583
lfemur -14.7824 -2.4816 -20.7721
ltibia 45.387
lfoot -14.5105 -2.5303
ltoes -21.7047
3497
root 14.6437 18.0525 -7.21491 538.929 -7.55957 178.658
lowerback 12.7613 0.580088 0.343192
upperback 2.70387 0.578908 0.770722
thorax -4.31728 0.168041 0.526714
lowerneck -12.0193 2.90648 -13.4034
upperneck 43.6263 0.394493 3.62101
head 18.3181 -3.58922 3.55544
rclavicle 1.90833e-014 -3.18055e-015
rhumerus -33.4628 -11.6395 -80.5294
rradius 37.3157
rwrist 0.307851
rhand -19.1027 5.43237
rfingers 7.12502
rthumb 7.20602 -24.4249
lclavicle 1.90833e-014 -3.18055e-015
lhumerus -31.2505 6.74048 85.3101
lradius 36.8453
lwrist -4.41233
lhand -19.5441 28.8658
lfingers 7.12502
lthumb 6.77996 58.7373
rfemur -13.7447 -1.46511 22.2106
rtibia 30.5325
rfoot -10.4656 -9.07585
rtoes 5.62542
lfemur -14.3632 -2.14756 -20.8212
ltibia 46.5443
lfoot -14.6411 -2.59281
ltoes -24.7701
3498
root 14.6313 18.0673 -7.17334 538.826 -7.60096 178.604
lowerback 12.7241 0.451556 0.305054
upperback 2.69084 0.406008 0.80158
thorax -4.30984 0.0837829 0.608585
lowerneck -12.0298 3.01023 -13.4534
upperneck 43.7316 0.513334 3.63052
head 18.3679 -3.57476 3.58524
rclavicle -1.8487e-014 -1.15295e-014
rhumerus -33.497 -11.3468 -80.4594
rradius 37.1479
rwrist -0.211566
rhand -19.0234 4.97852
rfingers 7.12502
rthumb 7.28259 -24.8762
lclavicle -1.8487e-014 -1.15295e-014
lhumerus -31.1993 6.94184 85.3237
lradius 36.7309
lwrist -4.59465
lhand -19.7009 28.7661
lfingers 7.12502
lthumb 6.62857 58.6424
rfemur -13.6082 -1.66759 22.0802
rtibia 30.1402
rfoot -10.0816 -8.91244
rtoes 5.32699
lfemur -13.8872 -1.86286 -20.8594
ltibia 47.6465
lfoot -14.677 -2.99652
ltoes -25.4382
3499
root 14.615 18.0806 -7.13064 538.763 -7.54013 178.57
lowerback 12.6401 0.379314 0.380789
upperback 2.68549 0.320479 0.781892
thorax -4.26791 0.041476 0.559084
lowerneck -12.0415 3.11084 -13.2876
upperneck 43.791 0.657615 3.48488
head 18.3905 -3.52314 3.50769
rclavicle -1.3418e-014 4.77083e-015
rhumerus -33.7004 -11.4633 -80.3151
rradius 36.9336
rwrist -0.0567826
rhand -18.3588 4.36417
rfingers 7.12502
rthumb 7.92407 -25.4673
lclavicle -1.3418e-014 4.77083e-015
lhumerus -31.0605 6.80639 85.4088
lradius 36.5911
lwrist -4.52194
lhand -20.0388 28.5513
lfingers 7.12502
lthumb 6.30234 58.4376
rfemur -13.4729 -1.79897 21.9574
rtibia 29.7218
rfoot -9.78028 -8.69332
rtoes 5.16306
lfemur -13.4249 -1.50604 -20.8782
ltibia 48.6878
lfoot -13.795 -3.62102
ltoes -21.9785
3500
root 14.6039 18.0896 -7.08204 538.753 -7.47021 178.571
lowerback 12.5564 0.331935 0.403048
upperback 2.64476 0.266334 0.807582
thorax -4.26423 0.0166875 0.581981
lowerneck -12.1105 3.1854 -13.1807
upperneck 43.8543 0.783298 3.37928
head 18.4341 -3.48141 3.45823
rclavicle -2.48481e-015 1.98785e-014
rhumerus -34.0959 -11.8589 -80.0727
rradius 36.7255
rwrist 0.369497
rhand -17.626 3.61981
rfingers 7.12502
rthumb 8.63128 -26.1837
lclavicle -2.48481e-015 1.98785e-014
lhumerus -30.9645 6.5969 85.5627
lradius 36.4394
lwrist -4.1622
lhand -20.0607 28.2003
lfingers 7.12502
lthumb 6.28121 58.0871
rfemur -13.4139 -1.78695 21.9198
rtibia 29.3041
rfoot -9.3922 -8.64695
rtoes 4.78699
lfemur -13.0545 -1.07798 -20.8016
ltibia 49.6658
lfoot -12.8436 -4.2684
ltoes -19.8483
